<svg xmlns="http://www.w3.org/2000/svg" version="1.1" xmlns:xlink="http://www.w3.org/1999/xlink" xmlns:svgjs="http://svgjs.dev/svgjs" width="100" height="100" viewBox="0 0 1500 511"><g transform="matrix(1,0,0,1,-0.9090909090909918,0.5016874757657206)"><svg viewBox="0 0 396 135" data-background-color="#111111" preserveAspectRatio="xMidYMid meet" height="511" width="1500" xmlns="http://www.w3.org/2000/svg" xmlns:xlink="http://www.w3.org/1999/xlink"><g id="tight-bounds" transform="matrix(1,0,0,1,0.2400000000000091,-0.13253974408684144)"><svg viewBox="0 0 395.52 135.26507948817368" height="135.26507948817368" width="395.52"><g><svg viewBox="0 0 395.52 135.26507948817368" height="135.26507948817368" width="395.52"><g><svg viewBox="0 0 395.52 135.26507948817368" height="135.26507948817368" width="395.52"><g id="textblocktransform"><svg viewBox="0 0 395.52 135.26507948817368" height="135.26507948817368" width="395.52" id="textblock"><g><svg viewBox="0 0 395.52 135.26507948817368" height="135.26507948817368" width="395.52"><g transform="matrix(1,0,0,1,0,0)"><svg width="395.52" viewBox="2.25 -32.7 128.94 44.1" height="135.26507948817368" data-palette-color="#ef0b1b"><path d="M35.3-14.6L35.3-14.6 35.3-1.5Q35.3-0.9 36-0.9L36-0.9 38.35-0.9 38.35 0 29.35 0 29.35-0.9 31-0.9Q31.7-0.9 31.7-1.5L31.7-1.5 31.7-15.25Q31.7-17.8 30.65-19.03 29.6-20.25 27.8-20.25L27.8-20.25Q25.3-20.25 23.7-17.03 22.1-13.8 22.1-7.75L22.1-7.75 22.1-1.6Q22.1-0.9 22.8-0.9L22.8-0.9 25.15-0.9 25.15 0 16.15 0 16.15-0.9 17.8-0.9Q18.5-0.9 18.5-1.5L18.5-1.5 18.5-15.25Q18.5-17.8 17.45-19.03 16.4-20.25 14.6-20.25L14.6-20.25Q12.1-20.25 10.5-17.03 8.9-13.8 8.9-7.75L8.9-7.75 8.9-1.6Q8.9-0.9 9.6-0.9L9.6-0.9 11.25-0.9 11.25 0 2.25 0 2.25-0.9 4.6-0.9Q5.3-0.9 5.3-1.5L5.3-1.5 5.3-20Q5.3-20.7 4.6-20.7L4.6-20.7 2.25-20.7 2.25-21.6 4.7-21.6Q7.7-21.6 8.9-21.9L8.9-21.9 8.9-15.2Q10.55-22.2 16-22.2L16-22.2Q18.4-22.2 20.18-20.45 21.95-18.7 22.1-15.15L22.1-15.15Q23.75-22.2 29.2-22.2L29.2-22.2Q31.7-22.2 33.5-20.33 35.3-18.45 35.3-14.6ZM54.6-20.7L54.6-21.6 60.95-21.6 60.95-20.7 59.1-20.7Q58.65-20.7 58.4-20L58.4-20 49.75 3.15Q49.6 3.6 49.25 4.5L49.25 4.5 48.7 5.85Q48.55 6.3 48.25 7.08 47.95 7.85 47.75 8.28 47.55 8.7 47.25 9.3L47.25 9.3Q46.9 10.05 46.25 10.73 45.6 11.4 44.9 11.4 44.2 11.4 43.42 10.53 42.65 9.65 42.5 8.65L42.5 8.65Q47.05 6.7 48.7 2.15L48.7 2.15 49.55-0.15 42.15-20Q41.9-20.7 41.45-20.7L41.45-20.7 39.6-20.7 39.6-21.6 48.1-21.6 48.1-20.7 45.6-20.7 51.35-4.9 57.15-20.7 54.6-20.7ZM64.55-30.6L62.2-30.6 62.2-31.5 77.75-31.5Q81.7-31.5 83.3-31.95L83.3-31.95Q82.85-29.9 82.85-26.25L82.85-26.25 82.85-23.9 81.7-23.9 80.95-29Q80.85-30.1 79.55-30.1L79.55-30.1 69.35-30.1 69.35-16.45 79.2-16.45Q79.7-16.45 79.8-17.15L79.8-17.15 80.05-20.25 80.95-20.25 80.95-11.25 80.05-11.25 79.8-14.35Q79.7-15.05 79.2-15.05L79.2-15.05 69.35-15.05 69.35-1.6Q69.35-0.9 70.05-0.9L70.05-0.9 74.4-0.9 74.4 0 62.2 0 62.2-0.9 64.55-0.9Q65.25-0.9 65.25-1.6L65.25-1.6 65.25-30Q65.25-30.6 64.55-30.6L64.55-30.6ZM88.34-1.6L88.34-1.6 88.34-30.8Q88.34-31.5 87.64-31.5L87.64-31.5 85.29-31.5 85.29-32.4 87.74-32.4Q90.74-32.4 91.94-32.7L91.94-32.7 91.94-1.6Q91.94-0.9 92.64-0.9L92.64-0.9 94.99-0.9 94.99 0 85.29 0 85.29-0.9 87.64-0.9Q88.34-0.9 88.34-1.6ZM101.79-1.6L101.79-1.6 101.79-20Q101.79-20.7 101.09-20.7L101.09-20.7 98.74-20.7 98.74-21.6 101.19-21.6Q104.19-21.6 105.39-21.9L105.39-21.9 105.39-1.5Q105.39-0.9 106.09-0.9L106.09-0.9 108.44-0.9 108.44 0 98.74 0 98.74-0.9 101.09-0.9Q101.79-0.9 101.79-1.6ZM101.92-27.13Q101.24-27.8 101.24-28.8 101.24-29.8 101.92-30.48 102.59-31.15 103.59-31.15 104.59-31.15 105.27-30.48 105.94-29.8 105.94-28.8 105.94-27.8 105.27-27.13 104.59-26.45 103.59-26.45 102.59-26.45 101.92-27.13ZM124.24-20.7L124.24-21.6 130.94-21.6 130.94-20.7 129.09-20.7Q128.54-20.7 128.19-20.2L128.19-20.2 122.44-11.55 128.44-1.3Q128.69-0.9 129.14-0.9L129.14-0.9 131.19-0.9 131.19 0 128.84 0Q126.44 0 125.24 0.3L125.24 0.3 119.74-9.1 114.34-0.9 116.89-0.9 116.89 0 110.19 0 110.19-0.9 112.04-0.9Q112.59-0.9 112.94-1.4L112.94-1.4 118.94-10.45 113.19-20.3Q112.94-20.7 112.49-20.7L112.49-20.7 110.44-20.7 110.44-21.6 112.79-21.6Q115.19-21.6 116.39-21.9L116.39-21.9 121.64-12.9 126.79-20.7 124.24-20.7Z" opacity="1" transform="matrix(1,0,0,1,0,0)" fill="#ef0b1b" class="wordmark-text-0" data-fill-palette-color="primary" id="text-0"></path></svg></g></svg></g></svg></g></svg></g></svg></g><defs></defs></svg><rect width="395.52" height="135.26507948817368" fill="none" stroke="none" visibility="hidden"></rect></g></svg></g></svg>